<svg width="108" height="28" viewBox="0 0 108 28" fill="none" xmlns="http://www.w3.org/2000/svg">
<path d="M3.248 2.952L0.368 2.484V0.251999H19.556L20.024 6.3H17.504L16.316 2.736L8.54 2.412V12.096L13.544 11.988L14.12 9.036H16.424V17.748H14.12L13.544 14.652L8.54 14.544V24.696L17.252 24.264L19.34 19.656L22.04 20.412L21.104 27H0.404V24.84L3.248 24.48V2.952ZM27.8458 24.048C28.0378 24.336 28.4698 24.612 29.1418 24.876C29.8378 25.116 30.5338 25.236 31.2298 25.236C32.3578 25.236 33.1978 25.008 33.7498 24.552C34.3258 24.072 34.6138 23.448 34.6138 22.68C34.6138 21.888 34.2658 21.252 33.5698 20.772C32.8738 20.268 31.6978 19.656 30.0418 18.936L29.0338 18.504C27.3778 17.808 26.1418 16.968 25.3258 15.984C24.5098 15 24.1018 13.728 24.1018 12.168C24.1018 11.088 24.4258 10.128 25.0738 9.288C25.7218 8.424 26.6338 7.752 27.8098 7.272C28.9858 6.792 30.3418 6.552 31.8778 6.552C33.0058 6.552 33.9658 6.624 34.7578 6.768C35.5738 6.912 36.4258 7.104 37.3138 7.344C37.7938 7.512 38.1538 7.608 38.3938 7.632V12.348H35.5498L34.7218 9.612C34.5778 9.372 34.2538 9.156 33.7498 8.964C33.2458 8.772 32.6698 8.676 32.0218 8.676C31.0378 8.676 30.2458 8.892 29.6458 9.324C29.0698 9.732 28.7818 10.308 28.7818 11.052C28.7818 11.724 28.9858 12.288 29.3938 12.744C29.8018 13.176 30.2458 13.512 30.7258 13.752C31.2058 13.992 32.0938 14.388 33.3898 14.94C34.6858 15.492 35.7538 16.02 36.5938 16.524C37.4578 17.028 38.1658 17.688 38.7178 18.504C39.2938 19.296 39.5818 20.268 39.5818 21.42C39.5818 23.196 38.8858 24.636 37.4938 25.74C36.1018 26.844 34.0978 27.396 31.4818 27.396C30.2578 27.396 29.1538 27.288 28.1698 27.072C27.2098 26.856 26.0938 26.568 24.8218 26.208L24.0298 25.956V21.204H27.0178L27.8458 24.048ZM48.2058 27.324C46.6938 27.324 45.5778 26.976 44.8578 26.28C44.1378 25.584 43.7778 24.48 43.7778 22.968V9.756H41.4378V7.884C41.6298 7.812 41.9778 7.692 42.4818 7.524C42.9858 7.332 43.3698 7.176 43.6338 7.056C44.0418 6.744 44.3898 6.204 44.6778 5.436C44.8938 4.932 45.2898 3.684 45.8658 1.692H48.7458L48.8898 6.984H54.3978V9.756H48.9258V19.872C48.9258 21.216 48.9618 22.164 49.0338 22.716C49.1058 23.268 49.2618 23.628 49.5018 23.796C49.7418 23.94 50.1618 24.012 50.7618 24.012C51.3618 24.012 51.9858 23.952 52.6338 23.832C53.2818 23.688 53.8218 23.52 54.2538 23.328L54.9378 25.344C54.2658 25.848 53.2818 26.304 51.9858 26.712C50.6898 27.12 49.4298 27.324 48.2058 27.324ZM56.0971 21.384C56.0971 19.2 57.1891 17.556 59.3731 16.452C61.5811 15.348 64.4251 14.784 67.9051 14.76V13.932C67.9051 12.948 67.7971 12.18 67.5811 11.628C67.3891 11.076 67.0171 10.668 66.4651 10.404C65.9371 10.116 65.1571 9.972 64.1251 9.972C62.9491 9.972 61.8931 10.128 60.9571 10.44C60.0211 10.728 59.0491 11.112 58.0411 11.592L56.9251 9.288C57.2851 8.976 57.8851 8.604 58.7251 8.172C59.5891 7.74 60.6091 7.368 61.7851 7.056C62.9611 6.72 64.1731 6.552 65.4211 6.552C67.2691 6.552 68.7091 6.792 69.7411 7.272C70.7971 7.752 71.5531 8.52 72.0091 9.576C72.4651 10.632 72.6931 12.048 72.6931 13.824V24.84H74.6371V26.856C74.1571 26.976 73.4731 27.096 72.5851 27.216C71.6971 27.336 70.9171 27.396 70.2451 27.396C69.4291 27.396 68.8771 27.276 68.5891 27.036C68.3251 26.796 68.1931 26.304 68.1931 25.56V24.588C67.5451 25.308 66.7051 25.956 65.6731 26.532C64.6411 27.108 63.4771 27.396 62.1811 27.396C61.0771 27.396 60.0571 27.168 59.1211 26.712C58.2091 26.232 57.4771 25.548 56.9251 24.66C56.3731 23.748 56.0971 22.656 56.0971 21.384ZM64.4851 24.408C64.9891 24.408 65.5651 24.264 66.2131 23.976C66.8611 23.664 67.4251 23.292 67.9051 22.86V16.956C65.7451 16.956 64.1251 17.328 63.0451 18.072C61.9891 18.792 61.4611 19.728 61.4611 20.88C61.4611 22.032 61.7251 22.908 62.2531 23.508C62.8051 24.108 63.5491 24.408 64.4851 24.408ZM82.5717 27.324C81.0597 27.324 79.9437 26.976 79.2237 26.28C78.5037 25.584 78.1437 24.48 78.1437 22.968V9.756H75.8037V7.884C75.9957 7.812 76.3437 7.692 76.8477 7.524C77.3517 7.332 77.7357 7.176 77.9997 7.056C78.4077 6.744 78.7557 6.204 79.0437 5.436C79.2597 4.932 79.6557 3.684 80.2317 1.692H83.1117L83.2557 6.984H88.7637V9.756H83.2917V19.872C83.2917 21.216 83.3277 22.164 83.3997 22.716C83.4717 23.268 83.6277 23.628 83.8677 23.796C84.1077 23.94 84.5277 24.012 85.1277 24.012C85.7277 24.012 86.3517 23.952 86.9997 23.832C87.6477 23.688 88.1877 23.52 88.6197 23.328L89.3037 25.344C88.6317 25.848 87.6477 26.304 86.3517 26.712C85.0557 27.12 83.7957 27.324 82.5717 27.324ZM99.9311 27.396C96.7631 27.396 94.3991 26.472 92.8391 24.624C91.3031 22.752 90.5351 20.208 90.5351 16.992C90.5351 14.832 90.9311 12.96 91.7231 11.376C92.5391 9.792 93.6791 8.58 95.1431 7.74C96.6071 6.9 98.2991 6.48 100.219 6.48C102.619 6.48 104.467 7.116 105.763 8.388C107.059 9.636 107.731 11.424 107.779 13.752C107.779 15.336 107.683 16.512 107.491 17.28H95.7911C95.8871 19.464 96.4031 21.168 97.3391 22.392C98.2751 23.592 99.6071 24.192 101.335 24.192C102.271 24.192 103.231 24.036 104.215 23.724C105.223 23.412 106.015 23.04 106.591 22.608L107.491 24.588C106.843 25.284 105.787 25.932 104.323 26.532C102.883 27.108 101.419 27.396 99.9311 27.396ZM102.739 15.12C102.787 14.448 102.811 13.932 102.811 13.572C102.811 10.38 101.743 8.784 99.6071 8.784C98.4311 8.784 97.5191 9.252 96.8711 10.188C96.2231 11.124 95.8631 12.768 95.7911 15.12H102.739Z" fill="#0048CE"/>
</svg>
